<?xml version="1.0" encoding="UTF-8"?>
<svg id="Layer_1" data-name="Layer 1" xmlns="http://www.w3.org/2000/svg" viewBox="0 0 340.08 348">
  <defs>
    <style>
      .cls-1 {
        fill: none;
        stroke: #000;
        stroke-linecap: round;
        stroke-linejoin: round;
        stroke-width: 48px;
      }

      .cls-2 {
        fill: #fff;
        stroke-width: 0px;
      }
    </style>
  </defs>
  <path class="cls-2" d="M324.84,195.95c-2.15,3.78-4.31,7.57-6.48,11.34-3.55,6.17-5.11,12.89-5.35,19.94-.17,4.95-.15,9.91-.26,14.86-.29,12.95-6.18,22.53-17.36,28.96-3.73,2.14-7.43,4.37-11.12,6.6-6.97,4.19-12.43,9.83-16.32,17.01-1.55,2.88-3.28,5.67-4.92,8.5-6.78,11.66-16.96,17.71-30.37,18.31-3.55.16-7.11.1-10.66.01-9.51-.24-18.22,2.36-26.32,7.21-4.87,2.93-9.93,5.41-15.27,7.41-9.58,3.58-18.75,2.51-27.61-2.24-4.95-2.66-9.75-5.64-14.73-8.25-5.4-2.83-11.27-3.92-17.34-4.05-5.35-.11-10.71-.09-16.04-.46-12.06-.83-21.28-6.45-27.5-16.88-1.8-3.02-3.62-6.04-5.28-9.13-4.24-7.9-10.32-13.95-18.08-18.38-3.4-1.94-6.75-3.95-10.12-5.95-10.45-6.23-15.89-15.58-16.82-27.57-.34-4.33-.21-8.7-.14-13.06.15-9.59-2.39-18.36-7.61-26.41-3.71-5.71-6.96-11.67-8.47-18.4-1.94-8.69-.69-16.84,4.11-24.38,5.98-9.4,10.11-19.52,11.44-30.6.59-4.94.7-9.97.62-14.95-.17-11.19,4.22-20.12,13.04-26.81,3.35-2.54,7-4.8,10.76-6.69,10.25-5.16,17.53-13.14,23.01-23.04,2.12-3.83,4.3-7.7,6.94-11.18,5.19-6.85,12.4-10.51,20.79-11.9,6.55-1.09,13.16-.49,19.74-.75,3.17-.12,6.35-.59,9.47-1.2,3.63-.71,6.96-2.29,10.16-4.14,4.3-2.46,8.56-4.99,12.92-7.32,4.66-2.48,9.7-3.61,14.98-3.71.6-.02,1.19-.35,1.78-.54.01-.16.03-.32.04-.48,5.73,1.85,11.47,3.65,17.18,5.58,1.18.4,2.29,1.14,3.32,1.88,10.42,7.52,22.12,10.67,34.86,10.17,5.45-.21,10.85-.23,16.15,1.32,9.43,2.76,16.23,8.82,21.25,17.06,2.18,3.58,4.19,7.26,6.28,10.9,3.4,5.93,8.07,10.58,13.98,14,3.94,2.28,7.93,4.47,11.78,6.9,8.9,5.59,14.86,13.35,16.84,23.84.48,2.54.73,5.15.81,7.73.13,4.2,0,8.4.04,12.6.07,7.62,2.25,14.6,6.24,21.1,2.99,4.86,6,9.73,8.01,15.11,3.88,10.41,3.11,20.46-2.37,30.13Z"/>
  <polyline class="cls-1" points="110.24 202.34 149.76 243.42 229.19 121.34"/>
</svg>